<svg width="125" height="37" viewBox="0 0 125 37" fill="none" xmlns="http://www.w3.org/2000/svg">
<rect width="125" height="37" rx="18.5" fill="#F0F0F0"/>
<path d="M44.4667 25.15C46.4 25.2 48.6 24.1833 48.6 22.1333C48.6 20.0833 46.3833 19.5333 44.75 19.0833C43.1667 18.7 42.2167 18.4 42.2167 17.5667C42.2167 16.4 43.4833 16.05 44.6333 16.05C45.8 16.05 46.65 16.7 46.85 18.1L48.4167 17.9C48.15 15.85 46.7167 14.6333 44.6333 14.6333C42.65 14.6333 40.6333 15.4333 40.6333 17.5667C40.6333 19.55 42.8333 20.1 44.4833 20.5C44.6 20.5167 44.6167 20.55 44.7167 20.5667L44.6833 20.55C45.6667 20.8 47 21.1333 47 22.1333C47 23.2333 45.8167 23.7333 44.4833 23.7333C43.15 23.7333 42.1333 23 41.9 21.4333L40.3333 21.65C40.65 23.85 42.2 25.1333 44.4667 25.15ZM56.2042 25.1833C58.5208 25.1833 60.0208 24.1167 60.6708 21.9667L59.1875 21.5C58.6542 23.1167 57.6875 23.7667 56.2042 23.7667C54.1042 23.7667 53.2042 22.6 53.0708 20.6333H60.7875V18.7167C60.4708 16.1333 58.8208 14.65 56.2042 14.65C53.0542 14.65 51.4375 16.9833 51.4375 19.9167C51.4375 23.1167 52.7875 25.15 56.2042 25.1833ZM53.0708 19.2C53.2542 17.3667 54.3375 16.0667 56.2042 16.0667C57.9208 16.0667 58.9542 17.1667 59.2042 18.85V19.2H53.0708ZM68.3917 25.1833C70.7083 25.1833 72.2083 24.1167 72.8583 21.9667L71.375 21.5C70.8417 23.1167 69.875 23.7667 68.3917 23.7667C66.2917 23.7667 65.3917 22.6 65.2583 20.6333H72.975V18.7167C72.6583 16.1333 71.0083 14.65 68.3917 14.65C65.2417 14.65 63.625 16.9833 63.625 19.9167C63.625 23.1167 64.975 25.15 68.3917 25.1833ZM65.2583 19.2C65.4417 17.3667 66.525 16.0667 68.3917 16.0667C70.1083 16.0667 71.1417 17.1667 71.3917 18.85V19.2H65.2583ZM79.9792 16.05C81.4792 16.05 82.3125 16.7833 82.3125 18.25V25H83.9125V18.25C83.9125 15.9833 82.3125 14.7 80.1458 14.7C79.1292 14.7 78.2292 15.45 77.5458 16.1667L77.4625 15H75.9792V25H77.5458V18.9667C77.5458 17.5167 78.3792 16.05 79.9792 16.05Z" fill="#737373"/>
</svg>
