<svg width="106" height="12" viewBox="0 0 106 12" fill="none" xmlns="http://www.w3.org/2000/svg">
<path d="M2.10917 8.94167C1.94667 8.94167 1.7625 8.97417 1.6 9.06083L3.5175 0.773333C3.66917 0.134166 3.14917 0.134166 2.95417 0.134166H2.79167L1.57833 2.21417C1.55667 1.59667 1.57833 0.448333 1.42667 0.0149996L0.928333 0.3075C1.10167 0.816666 1.10167 2.29 1.09083 2.88583H1.65417L2.94333 0.686666L0.7875 10.0142C0.646667 10.6317 1.015 11.1083 1.61083 11.1083C2.20667 11.1083 2.8025 10.6317 2.94333 10.0142C3.08417 9.41833 2.705 8.94167 2.10917 8.94167ZM1.71917 10.6317C1.405 10.6317 1.18833 10.35 1.26417 10.0142C1.34 9.7 1.68667 9.41833 2.00083 9.41833C2.32583 9.41833 2.53167 9.7 2.45583 10.0142C2.38 10.35 2.04417 10.6317 1.71917 10.6317ZM8.96717 11H9.57384L10.2888 7.90167C10.3863 7.49 10.408 6.84 9.98551 6.43917C10.3647 6.24417 10.7113 5.87583 10.8088 5.46417C10.9497 4.86833 10.5705 4.37 9.97467 4.37C9.37884 4.37 8.79384 4.86833 8.65301 5.46417C8.56634 5.84333 8.67467 6.17917 8.92384 6.36333C7.63467 7.035 5.96634 9.6025 5.96634 9.6025L6.91967 5.46417C7.06051 4.84667 6.67051 4.37 6.07467 4.37C5.47884 4.37 4.89384 4.84667 4.75301 5.46417C4.61217 6.06 4.98051 6.53667 5.57634 6.53667C5.74967 6.53667 5.93384 6.49333 6.10717 6.40667L5.04551 11H5.64134C5.64134 11 8.12217 7.0025 9.34634 6.65583C9.70384 6.88333 9.80134 7.40333 9.68217 7.90167L8.96717 11ZM5.68467 6.06C5.35967 6.06 5.15384 5.78917 5.22967 5.46417C5.30551 5.1175 5.64134 4.84667 5.96634 4.84667C6.29134 4.84667 6.51884 5.1175 6.44301 5.46417C6.36717 5.78917 6.00967 6.06 5.68467 6.06ZM9.58467 6.06C9.25967 6.06 9.05384 5.78917 9.12967 5.46417C9.20551 5.1175 9.54134 4.84667 9.86634 4.84667C10.213 4.84667 10.4188 5.1175 10.343 5.46417C10.2672 5.78917 9.93134 6.06 9.58467 6.06ZM16.2485 10.5883C15.9235 10.5883 15.7177 10.3175 15.7935 9.97083C15.8694 9.64583 16.2052 9.375 16.5302 9.375C16.8769 9.375 17.0827 9.64583 17.0069 9.97083C16.931 10.3175 16.5952 10.5883 16.2485 10.5883ZM14.5369 5.46417C14.6777 4.84667 14.2877 4.38083 13.6919 4.38083C13.096 4.38083 12.511 4.84667 12.3702 5.46417C12.2294 6.06 12.5977 6.53667 13.1935 6.53667C13.3669 6.53667 13.551 6.515 13.7135 6.42833L12.6627 11H13.2585C13.2585 11 14.3202 9.97083 15.4902 9.505C15.3927 9.64583 15.3169 9.80833 15.2844 9.97083C15.1327 10.61 15.5119 11.0975 16.1294 11.0975C16.7577 11.0975 17.3644 10.61 17.516 9.97083C17.6244 9.48333 17.386 9.05 16.9527 8.90917C17.2669 8.67083 17.4077 8.4325 17.451 8.3025L18.3394 4.5H17.7435L16.8877 8.18333C16.8877 8.18333 16.7902 8.61667 15.9669 8.8225C14.7102 9.13667 13.6702 10.0142 13.4427 10.1875L14.5369 5.46417ZM13.3019 6.06C12.9769 6.06 12.771 5.78917 12.8469 5.46417C12.9227 5.1175 13.2585 4.84667 13.5835 4.84667C13.9085 4.84667 14.136 5.1175 14.0602 5.46417C13.9844 5.78917 13.6269 6.06 13.3019 6.06ZM22.2113 8.94167C22.0488 8.94167 21.8646 8.97417 21.7021 9.06083L23.4463 1.51C23.6521 0.643333 23.0996 0.0799996 22.2113 0.0799996C21.3554 0.0799996 20.6621 0.708333 20.3696 1.46667C20.2504 1.77 20.1854 2.095 20.1854 2.39833C20.1963 2.81 20.4888 3.11333 20.9221 3.11333C21.4313 3.11333 21.9404 2.70167 22.0596 2.18167C22.1788 1.68333 21.8538 1.27167 21.3446 1.27167C21.2363 1.27167 21.1279 1.29333 21.0196 1.33667C21.2471 0.838333 21.6046 0.621666 22.0813 0.621666C22.8288 0.621666 22.9479 1.07667 22.8504 1.51L20.8896 10.0142C20.7488 10.6317 21.1171 11.1083 21.7129 11.1083C22.3088 11.1083 22.9046 10.6317 23.0454 10.0142C23.1863 9.41833 22.8071 8.94167 22.2113 8.94167ZM21.2471 1.705C21.5071 1.705 21.6696 1.92167 21.6154 2.18167C21.5504 2.46333 21.2796 2.68 21.0196 2.68C20.7596 2.68 20.5971 2.46333 20.6621 2.18167C20.7163 1.92167 20.9871 1.705 21.2471 1.705ZM21.8213 10.6317C21.5071 10.6317 21.2904 10.35 21.3663 10.0142C21.4421 9.7 21.7888 9.41833 22.1029 9.41833C22.4279 9.41833 22.6338 9.7 22.5579 10.0142C22.4821 10.35 22.1463 10.6317 21.8213 10.6317ZM24.7197 10.4692C25.1205 9.44 25.6947 8.37833 26.5072 7.37083C26.5505 7.57667 26.6805 7.76083 26.8539 7.85833C27.298 8.12917 28.013 7.93417 28.4139 7.40333C28.8039 6.85083 28.7389 6.21167 28.2947 5.95167C27.948 5.74583 27.5147 5.8325 27.168 6.00583C26.6914 6.23333 25.6514 7.56583 25.218 8.34583L25.6622 6.4175C25.803 5.81083 26.5614 4.7925 28.0455 4.7925C29.573 4.7925 29.7897 5.81083 29.6489 6.4175L28.5872 11H29.183L30.2447 6.40667C30.3855 5.81083 30.1472 4.28333 28.1647 4.28333C26.2147 4.28333 25.2072 5.81083 25.0664 6.4175L24.0047 11H24.6005L24.7197 10.4692ZM27.0814 6.645C27.3089 6.33083 27.688 6.23333 27.948 6.37417C28.2189 6.515 28.2405 6.88333 28.013 7.18667C27.7964 7.47917 27.4064 7.59833 27.1464 7.43583C26.8972 7.28417 26.8755 6.92667 27.0814 6.645ZM34.7559 9.06083C34.6151 8.97417 34.4634 8.93083 34.2901 8.93083C33.6943 8.93083 33.0984 9.41833 32.9576 10.025C32.8168 10.6208 33.1959 11.1083 33.7918 11.1083C34.3876 11.1083 34.9943 10.6208 35.1351 10.025L35.7634 7.30583C36.1101 5.81083 33.9434 5.58333 32.6434 5.54C32.9793 5.085 33.5751 4.83583 34.0951 4.83583C34.5501 4.83583 34.7884 4.93333 35.0918 5.02C35.6226 5.16083 36.0559 5.33417 36.8251 4.76L36.5543 4.31583C36.0343 4.68417 35.8609 4.61917 35.3518 4.47833C35.0484 4.39167 34.7559 4.28333 34.2251 4.2725C33.0876 4.2725 32.2209 4.91167 31.7334 6.03833C32.7193 6.04917 35.4926 5.90833 35.1243 7.4575L34.7559 9.06083ZM33.9001 10.6208C33.5751 10.6208 33.3693 10.35 33.4451 10.025C33.5209 9.68917 33.8568 9.41833 34.1818 9.41833C34.5068 9.41833 34.7126 9.68917 34.6368 10.025C34.5609 10.35 34.2251 10.6208 33.9001 10.6208ZM38.6906 6.07083C38.3656 6.07083 38.1598 5.78917 38.2356 5.475C38.3115 5.13917 38.6473 4.8575 38.9723 4.8575C39.2865 4.8575 39.5031 5.13917 39.4273 5.475C39.3515 5.78917 39.0048 6.07083 38.6906 6.07083ZM41.5615 11C42.2656 11 42.6015 11 42.7965 10.155L44.1073 4.5H43.5115L42.2006 10.155C42.1248 10.48 41.9515 10.48 41.6806 10.48H38.7448L39.904 5.475C40.0448 4.8575 39.6765 4.38083 39.0806 4.38083C38.4848 4.38083 37.889 4.8575 37.7481 5.475C37.6073 6.07083 37.9865 6.5475 38.5823 6.5475C38.7448 6.5475 38.929 6.515 39.0806 6.42833L38.0298 11H41.5615ZM46.084 6.2225C46.3224 5.59417 47.1782 4.78167 48.4782 4.78167C50.0274 4.78167 50.2115 5.81083 50.0599 6.42833L49.204 10.155C49.1282 10.48 48.9549 10.48 48.6949 10.48H45.6832L46.1382 8.51917C46.2465 8.60583 46.3982 8.63833 46.5715 8.63833C47.1674 8.63833 47.774 8.15083 47.904 7.555C48.0449 6.94833 47.6657 6.4825 47.0699 6.4825C46.474 6.4825 45.8782 6.94833 45.7374 7.555L44.9465 11H48.5757C49.269 11 49.6049 11 49.7999 10.155L50.6665 6.40667C50.8074 5.81083 50.5907 4.28333 48.5865 4.28333C47.0157 4.28333 45.954 5.30167 45.5857 6.01667L46.084 6.2225ZM46.2249 7.555C46.3115 7.21917 46.6474 6.94833 46.9615 6.94833C47.2865 6.94833 47.5032 7.21917 47.4165 7.555C47.3407 7.88 47.0157 8.15083 46.6907 8.15083C46.3765 8.15083 46.149 7.88 46.2249 7.555ZM53.7202 6.5475C53.7202 6.5475 52.7235 6.92667 52.4852 7.93417L51.781 11H52.366L53.1135 7.76083C53.3302 6.8075 54.316 6.71 54.316 6.71L54.4243 6.255L53.1893 6.04917C53.3843 5.7675 54.0235 4.80333 55.4535 4.80333C57.2302 4.80333 57.0243 6.255 56.9918 6.39583L55.9302 11H56.526L57.5877 6.385C57.6635 6.0925 57.8368 4.28333 55.551 4.28333C53.211 4.28333 52.3985 6.39583 52.3985 6.39583L53.7202 6.5475ZM63.1958 10.5883C62.8708 10.5883 62.665 10.3175 62.7408 9.97083C62.8166 9.64583 63.1525 9.375 63.4775 9.375C63.8241 9.375 64.03 9.64583 63.9541 9.97083C63.8783 10.3175 63.5425 10.5883 63.1958 10.5883ZM61.4841 5.46417C61.625 4.84667 61.235 4.38083 60.6391 4.38083C60.0433 4.38083 59.4583 4.84667 59.3175 5.46417C59.1766 6.06 59.545 6.53667 60.1408 6.53667C60.3141 6.53667 60.4983 6.515 60.6608 6.42833L59.61 11H60.2058C60.2058 11 61.2675 9.97083 62.4375 9.505C62.34 9.64583 62.2641 9.80833 62.2316 9.97083C62.08 10.61 62.4591 11.0975 63.0766 11.0975C63.705 11.0975 64.3116 10.61 64.4633 9.97083C64.5716 9.48333 64.3333 9.05 63.9 8.90917C64.2141 8.67083 64.355 8.4325 64.3983 8.3025L65.2866 4.5H64.6908L63.835 8.18333C63.835 8.18333 63.7375 8.61667 62.9141 8.8225C61.6575 9.13667 60.6175 10.0142 60.39 10.1875L61.4841 5.46417ZM60.2491 6.06C59.9241 6.06 59.7183 5.78917 59.7941 5.46417C59.87 5.1175 60.2058 4.84667 60.5308 4.84667C60.8558 4.84667 61.0833 5.1175 61.0075 5.46417C60.9316 5.78917 60.5741 6.06 60.2491 6.06ZM65.7352 3.525L66.2877 1.13083H65.6919L65.1394 3.525H65.7352ZM66.916 6.27667C67.1544 5.7025 67.5769 4.78167 68.9202 4.78167C70.3827 4.78167 70.3502 5.8 70.2094 6.4175L69.1477 11H69.7544L70.816 6.4175C70.9569 5.8 70.9677 4.2725 69.0285 4.2725C67.436 4.2725 66.8185 5.36667 66.4502 6.06L66.916 6.27667ZM76.4243 10.5883C76.0993 10.5883 75.8935 10.3175 75.9693 9.97083C76.0451 9.64583 76.381 9.375 76.706 9.375C77.0526 9.375 77.2585 9.64583 77.1826 9.97083C77.1068 10.3175 76.771 10.5883 76.4243 10.5883ZM74.7126 5.46417C74.8535 4.84667 74.4635 4.38083 73.8676 4.38083C73.2718 4.38083 72.6868 4.84667 72.546 5.46417C72.4051 6.06 72.7735 6.53667 73.3693 6.53667C73.5426 6.53667 73.7268 6.515 73.8893 6.42833L72.8385 11H73.4343C73.4343 11 74.496 9.97083 75.666 9.505C75.5685 9.64583 75.4926 9.80833 75.4601 9.97083C75.3085 10.61 75.6876 11.0975 76.3051 11.0975C76.9335 11.0975 77.5401 10.61 77.6918 9.97083C77.8001 9.48333 77.5618 9.05 77.1285 8.90917C77.4426 8.67083 77.5835 8.4325 77.6268 8.3025L78.5151 4.5H77.9193L77.0635 8.18333C77.0635 8.18333 76.966 8.61667 76.1426 8.8225C74.886 9.13667 73.846 10.0142 73.6185 10.1875L74.7126 5.46417ZM73.4776 6.06C73.1526 6.06 72.9468 5.78917 73.0226 5.46417C73.0985 5.1175 73.4343 4.84667 73.7593 4.84667C74.0843 4.84667 74.3118 5.1175 74.236 5.46417C74.1601 5.78917 73.8026 6.06 73.4776 6.06ZM84.2504 11H84.857L85.572 7.90167C85.6695 7.49 85.6912 6.84 85.2687 6.43917C85.6479 6.24417 85.9945 5.87583 86.092 5.46417C86.2329 4.86833 85.8537 4.37 85.2579 4.37C84.662 4.37 84.077 4.86833 83.9362 5.46417C83.8495 5.84333 83.9579 6.17917 84.207 6.36333C82.9179 7.035 81.2495 9.6025 81.2495 9.6025L82.2029 5.46417C82.3437 4.84667 81.9537 4.37 81.3579 4.37C80.762 4.37 80.177 4.84667 80.0362 5.46417C79.8954 6.06 80.2637 6.53667 80.8595 6.53667C81.0329 6.53667 81.217 6.49333 81.3904 6.40667L80.3287 11H80.9245C80.9245 11 83.4054 7.0025 84.6295 6.65583C84.987 6.88333 85.0845 7.40333 84.9654 7.90167L84.2504 11ZM80.9679 6.06C80.6429 6.06 80.437 5.78917 80.5129 5.46417C80.5887 5.1175 80.9245 4.84667 81.2495 4.84667C81.5745 4.84667 81.802 5.1175 81.7262 5.46417C81.6504 5.78917 81.2929 6.06 80.9679 6.06ZM84.8679 6.06C84.5429 6.06 84.337 5.78917 84.4129 5.46417C84.4887 5.1175 84.8245 4.84667 85.1495 4.84667C85.4962 4.84667 85.702 5.1175 85.6262 5.46417C85.5504 5.78917 85.2145 6.06 84.8679 6.06ZM91.5317 10.5883C91.2067 10.5883 91.0009 10.3175 91.0767 9.97083C91.1526 9.64583 91.4884 9.375 91.8134 9.375C92.1601 9.375 92.3659 9.64583 92.2901 9.97083C92.2142 10.3175 91.8784 10.5883 91.5317 10.5883ZM89.8201 5.46417C89.9609 4.84667 89.5709 4.38083 88.9751 4.38083C88.3792 4.38083 87.7942 4.84667 87.6534 5.46417C87.5126 6.06 87.8809 6.53667 88.4767 6.53667C88.6501 6.53667 88.8342 6.515 88.9967 6.42833L87.9459 11H88.5417C88.5417 11 89.6034 9.97083 90.7734 9.505C90.6759 9.64583 90.6001 9.80833 90.5676 9.97083C90.4159 10.61 90.7951 11.0975 91.4126 11.0975C92.0409 11.0975 92.6476 10.61 92.7992 9.97083C92.9076 9.48333 92.6692 9.05 92.2359 8.90917C92.5501 8.67083 92.6909 8.4325 92.7342 8.3025L93.6226 4.5H93.0267L92.1709 8.18333C92.1709 8.18333 92.0734 8.61667 91.2501 8.8225C89.9934 9.13667 88.9534 10.0142 88.7259 10.1875L89.8201 5.46417ZM88.5851 6.06C88.2601 6.06 88.0542 5.78917 88.1301 5.46417C88.2059 5.1175 88.5417 4.84667 88.8667 4.84667C89.1917 4.84667 89.4192 5.1175 89.3434 5.46417C89.2676 5.78917 88.9101 6.06 88.5851 6.06ZM95.252 6.27667C95.4903 5.7025 95.9128 4.78167 97.2561 4.78167C98.7186 4.78167 98.6861 5.8 98.5453 6.4175L97.4836 11H98.0903L99.152 6.4175C99.2928 5.8 99.3036 4.2725 97.3645 4.2725C95.772 4.2725 95.1545 5.36667 94.7861 6.06L95.252 6.27667ZM104.034 9.06083C103.926 8.97417 103.774 8.94167 103.601 8.94167C103.005 8.94167 102.409 9.41833 102.269 10.0142C102.128 10.6208 102.507 11.1083 103.103 11.1083C103.699 11.1083 104.284 10.6208 104.424 10.0142L105.248 6.43917C105.389 5.8325 105.313 4.28333 103.363 4.28333C101.792 4.28333 100.893 5.3775 100.524 6.0925L101.012 6.2875C101.25 5.69167 101.933 4.7925 103.244 4.7925C104.728 4.7925 104.782 5.8325 104.641 6.43917L104.034 9.06083ZM103.948 10.0142C103.872 10.35 103.525 10.6208 103.211 10.6208C102.886 10.6208 102.68 10.35 102.756 10.0142C102.832 9.68917 103.168 9.41833 103.493 9.41833C103.807 9.41833 104.024 9.68917 103.948 10.0142Z" fill="white"/>
</svg>
